<svg id="Layer_1" data-name="Layer 1" xmlns="http://www.w3.org/2000/svg" viewBox="0 0 543.74 74.35"><defs><style>.cls-1{fill:#fff;}.cls-2{fill:#ff5000;}</style></defs><title>LogoExport</title><path class="cls-1" d="M5.66,51.58c-.49-.29-1.34-.43-1.57.11s.18.87.74,1.29,1.51.59,1.75.13C6.91,52.44,6.08,51.82,5.66,51.58Z"/><path class="cls-1" d="M9.56,51.64c-3-1.2-3.54-4.57-4.23-4s1.58,6,4.07,6.32c3,.41,6.77-4.7,5.65-5.29C14.56,48.41,12.45,52.79,9.56,51.64Z"/><path class="cls-1" d="M7.92,27.85c-2.53-3-3.89-6.12-4.16-6.18s-.49.57-.52,1.13,1.41,3.68,3.45,5.88,4.82,3.52,4.78,3.91c0,.13-1.17.32-3.21,1.21-2.21,1-3.41,2.32-3.39,2.8s.14.54.31.57c.39.09,3.05-2.29,4.83-2.69a38.45,38.45,0,0,1,5-.41c.28-.12.12-.39.17-.79s.33-.73.14-1S10.36,30.72,7.92,27.85Z"/><path class="cls-1" d="M9.59,43.35c-3-1.2-3.54-4.57-4.23-4s1.59,6,4.07,6.32c3,.41,6.83-4.46,5.64-5.29C14.63,40.06,12.49,44.5,9.59,43.35Z"/><path class="cls-1" d="M4.81,44.63c.45.33,1.51.59,1.75.13.34-.66-.5-1.28-.91-1.52s-1.35-.43-1.58.11S4.26,44.22,4.81,44.63Z"/><path class="cls-1" d="M4.61,31.74c.44.33,1.5.59,1.73.13.34-.66-.49-1.29-.91-1.53s-1.34-.44-1.57.1S4,31.33,4.61,31.74Z"/><path class="cls-1" d="M50.65,33.82c-10.89-2.09-12.74-1.93-12.74-4.17v-.46c0-1.85,1.78-2.55,5.17-2.55a21.05,21.05,0,0,1,5.4.54l1,4H61.38V19.61C56.06,17.83,48.49,17.14,43,17.14H41.62c-11.58,0-17.14,3.78-17.14,12.28v1.7c0,5.87,2.39,9.5,12.28,11.27,10.65,1.93,12,2.32,12,4.56v.62c0,2.16-1.54,3.24-4.25,3.24H42.24c-2.08,0-4.79-.93-5.79-2.78l-.39-2.93H24.48V56.44c4.94,3.47,12.74,4.17,18.22,4.17h3c11.58,0,17.06-4.25,17.06-13.9V44.08C62.77,38.83,59.61,35.51,50.65,33.82Z"/><path class="cls-1" d="M97.38,17.14H96.22c-5.4,0-9.81,3.09-13.59,5.56V18.07H63.87V28.26c1.47.31,2.86.62,4.25.85V63.38c-1.47.23-2.86.46-4.4.77V74.35H88.42V64.16c-1.54-.31-4.32-.54-5.79-.77V57.13c4.63,1.62,7.26,3,12.82,3h1.24c6.64,0,12.2-4.17,12.2-13.28V32.73C108.88,21.54,104.09,17.14,97.38,17.14Zm-3,23.62c0,6.72-.62,8.11-4.32,8.11H88.88a12.45,12.45,0,0,1-6.25-1.54V31.42a12.65,12.65,0,0,1,6.41-2h1c3.86,0,4.32,1.31,4.32,7.49Z"/><path class="cls-1" d="M133.74,17.14h-2.62c-13.2,0-19.61,5.48-19.61,17.76V41c0,14.21,5.25,19.61,19.92,19.61H134a29.32,29.32,0,0,0,17-5.1V45.78H139.38L139,47.71c-.7,2.24-2.39,2.86-5,2.86H131.2c-3,0-5.4-1.31-5.4-5V43.77h26.33V34.12C152.12,22.47,146.41,17.14,133.74,17.14Zm5.33,18.14H125.79V31.65c0-3.17,2.16-4.94,5.56-4.94h2.24c3.17,0,5.48,1.62,5.48,4.71Z"/><path class="cls-1" d="M180.86,46.71c-.77,2.24-2.47,3.17-5.1,3.17h-1.39c-3,0-5.17-.93-5.17-5.48V34c0-4.63,1.93-6.18,5.48-6.18,2.39,0,3.86.08,5.71.23l1.23,6.87h10.89V19.07a72,72,0,0,0-15.83-1.93h-4.4c-11,0-17.6,5.56-17.6,16.21v10c0,11.66,5.4,17.29,17.6,17.29h3.78A32.9,32.9,0,0,0,193,55.51V45.32H181.17Z"/><path class="cls-1" d="M206.81,14.67c4.48,0,8.11-2.93,8.11-7.34S211.28,0,206.81,0s-8,2.86-8,7.33S202.4,14.67,206.81,14.67Z"/><path class="cls-1" d="M214.14,18.07H195.38V28.26c1.47.31,2.86.62,4.25.85V48.56c-1.47.23-2.86.46-4.4.77V59.52h23.32V49.33c-1.54-.31-2.93-.54-4.4-.77Z"/><path class="cls-1" d="M260.59,32c0-9.11-5.25-14.82-14.13-14.82h-3.71a112.38,112.38,0,0,0-19.07,1.78V31.65H234.5l.62-3.63a28.47,28.47,0,0,1,5.71-.46c3.47,0,5.25,1.39,5.25,5V34.2c-5.25.54-8,.77-13.43,1.39-6.64.77-12.2,1.93-12.2,11.12v1.7c0,10.89,4.63,11.73,11.58,11.73h1.16c5.4,0,9.26-2.62,12.89-5.64v4.94h18.84V49.26l-4.32-.77ZM246.08,46.71c-1.7,1.54-4.25,2.93-6.33,2.93h-1c-2.55,0-3.47-.85-3.47-3.09V45.24c0-2,1.08-3.09,3.86-3.55,2.55-.54,5.1-.85,6.95-1.16Z"/><path class="cls-1" d="M285.61,5.48H266.85V15.67c1.47.31,2.86.62,4.25.85v32c-1.47.23-2.86.46-4.4.77V59.52H290V49.33c-1.54-.31-2.93-.54-4.4-.77Z"/><path class="cls-1" d="M352.44,28.41c0-7.26-4-11.27-10.73-11.27h-1c-5.4,0-10.58,3.47-14.51,6.41V18.07H307.43V28.26c1.47.31,2.86.62,4.25.85V48.56c-1.47.23-2.86.46-4.4.77V59.52h23.32V49.33c-1.54-.31-2.93-.54-4.4-.77V31.73a14.31,14.31,0,0,1,6.72-2.32h.93c3.78,0,4.09.93,4.09,7V59.52H357V49.33c-2.24-.39-3.55-.62-4.56-.85Z"/><path class="cls-1" d="M379.69,17.14h-2.62c-13.2,0-19.61,5.48-19.61,17.76V41c0,14.21,5.25,19.61,19.92,19.61h2.55a29.32,29.32,0,0,0,17-5.1V45.78H385.33l-.39,1.93c-.7,2.24-2.39,2.86-5,2.86h-2.78c-3,0-5.4-1.31-5.4-5V43.77h26.33V34.12C398.07,22.47,392.35,17.14,379.69,17.14ZM385,35.28H371.74V31.65c0-3.17,2.16-4.94,5.56-4.94h2.24c3.17,0,5.48,1.62,5.48,4.71Z"/><path class="cls-1" d="M423,17.14h-2.62c-13.2,0-19.61,5.48-19.61,17.76V41c0,14.21,5.25,19.61,19.92,19.61h2.55a29.32,29.32,0,0,0,17-5.1V45.78H428.64l-.39,1.93c-.69,2.24-2.39,2.86-5,2.86h-2.78c-3,0-5.4-1.31-5.4-5V43.77h26.33V34.12C441.38,22.47,435.67,17.14,423,17.14Zm5.33,18.14H415.05V31.65c0-3.17,2.16-4.94,5.56-4.94h2.24c3.17,0,5.48,1.62,5.48,4.71Z"/><path class="cls-1" d="M484.77,5.48H465.7v9c2.08.31,3.47.69,4.55.93V21c-4.79-2.55-7.18-3.7-12.82-3.7h-1.16c-6.64,0-12.2,4.79-12.2,13.82V44.47c0,11.2,4.94,15.67,11.58,15.67h1.16c5.4,0,9.73-3.17,13.43-6.1v5.4h18.91V49.26l-4.4-.77Zm-14.51,40.3a11.46,11.46,0,0,1-6.25,2h-1c-3.78,0-4.4-1.24-4.4-7.41V34.74c0-3.63.54-5.56,4.4-5.56h1a12.5,12.5,0,0,1,6.25,1.39Z"/><path class="cls-1" d="M517.34,33.82c-10.89-2.09-12.74-1.93-12.74-4.17v-.46c0-1.85,1.78-2.55,5.17-2.55a21.05,21.05,0,0,1,5.4.54l1,4h11.89V19.61c-5.33-1.78-12.89-2.47-18.37-2.47h-1.39c-11.58,0-17.14,3.78-17.14,12.28v1.7c0,5.87,2.39,9.5,12.28,11.27,10.65,1.93,12,2.32,12,4.56v.62c0,2.16-1.54,3.24-4.25,3.24h-2.24c-2.09,0-4.79-.93-5.79-2.78l-.39-2.93H491.17V56.44c4.94,3.47,12.74,4.17,18.22,4.17h3c11.58,0,17.06-4.25,17.06-13.9V44.08C529.46,38.83,526.3,35.51,517.34,33.82Z"/><path class="cls-2" d="M2.81,17.27A2.82,2.82,0,0,0,0,20.08V56.85a2.8,2.8,0,0,0,2.8,2.81H18.87V17.24H17.28ZM3.87,30.45c.23-.54,1.07-.39,1.57-.1s1.25.86.91,1.53c-.24.46-1.3.2-1.73-.13S3.68,30.86,3.87,30.45Zm.21,12.89c.23-.54,1.07-.4,1.58-.11s1.25.87.91,1.52c-.24.46-1.3.2-1.75-.13S3.91,43.75,4.08,43.34ZM6.57,53.1c-.24.46-1.31.2-1.75-.13s-.91-.88-.74-1.29,1.08-.4,1.57-.11S6.91,52.44,6.57,53.1ZM9.4,54c-2.48-.33-4.84-5.68-4.07-6.32s1.2,2.79,4.23,4,5-3.23,5.49-3C16.16,49.27,12.43,54.37,9.4,54Zm0-8.29C6.94,45.34,4.6,40,5.36,39.36s1.2,2.79,4.23,4,5-3.29,5.48-3C16.26,41.21,12.46,46.08,9.43,45.67Zm5.8-12.38c0,.4.1.68-.17.79a38.45,38.45,0,0,0-5,.41c-1.78.4-4.44,2.78-4.83,2.69-.17,0-.28-.09-.31-.57s1.17-1.83,3.39-2.8c2-.89,3.19-1.08,3.21-1.21,0-.4-2.64-1.61-4.78-3.91s-3.5-5.31-3.45-5.88.37-1.17.52-1.13,1.63,3.2,4.16,6.18,7.32,4.35,7.45,4.49S15.28,32.9,15.23,33.29Z"/><circle class="cls-2" cx="537.56" cy="54.6" r="6.18"/></svg>