<svg xmlns="http://www.w3.org/2000/svg" viewBox="0 0 65.35 24.68"><defs><style>.cls-1{fill:#fff;}</style></defs><title>ccv</title><g id="Layer_2" data-name="Layer 2"><g id="Layer_1-2" data-name="Layer 1"><path class="cls-1" d="M18.94,3.3c.8-1.1,1.8-1.8,2.6-1.5,1.1.5.8,2.2.2,3.2-.5.8-1.8,2.6-3.1,1.8C17.74,6.3,18.24,4.2,18.94,3.3Z"/><path class="cls-1" d="M2,3.4c.8-1.1,1.8-1.8,2.6-1.5,1.1.5.8,2.2.2,3.2-.5.8-1.8,2.6-3,1.8C.84,6.4,1.34,4.2,2,3.4Z"/><path class="cls-1" d="M4.74,12.9c-2.3,5.8,6.6,10.1,6,11C9.54,26.2-.76,18.6,0,12.5c.6-5,11.5-9.8,12.8-8.2C13.94,5.8,7.14,6.8,4.74,12.9Z"/><path class="cls-1" d="M21.54,13c-2.3,5.8,6.6,10.2,6,11.1-1.7,2.4-11.5-5.3-10.7-11.4.6-5,11.4-9.8,12.7-8.2C30.74,5.8,23.94,6.8,21.54,13Z"/><path class="cls-1" d="M44.94,2.8c.8-1.1,1.8-1.8,2.6-1.5,1.1.5.8,2.2.2,3.2-.5.8-1.8,2.6-3.1,1.8C43.74,5.8,44.34,3.8,44.94,2.8Z"/><path class="cls-1" d="M65.34,1.1c-.2.6-6.5,3.3-12.5,8.4-5.8,5-8.8,14.8-9,15-.6.5-1.2-.2-2-.2s-1.4.2-1.6-.3.1-6.2-.9-10.2c-.8-3.6-5.6-9-5.4-9.8.1-.3.2-.6,1.1-.6s3.7,2.4,5.7,6.8c1.8,4.1,2.2,6.5,2.5,6.5.8.1,3.3-5.4,7.9-9.7s10.7-7.1,11.8-7S65.44.8,65.34,1.1Z"/></g></g></svg>